<svg xmlns="http://www.w3.org/2000/svg" width="166" height="34" viewBox="0 0 166 34" fill="none"><g clip-path="url(#clip0_2002_13)"><path d="M16.2775 34.2326C18.468 34.3371 20.5675 34.0244 22.5675 33.2983C23.7497 32.8691 24.8802 32.3042 25.953 31.6026C26.2317 31.4198 26.3015 31.0348 26.1163 30.7639C26.0932 30.7299 26.0702 30.6966 26.0476 30.6626C25.3948 29.7134 24.9624 29.2169 23.9123 28.1119C23.7154 27.9044 23.4143 27.7103 23.0545 27.541C21.9488 27.0214 20.2991 26.7526 19.4427 27.1709L19.2901 27.2449C19.0262 27.3728 18.716 27.3203 18.5144 27.1139C18.4 26.9966 18.2414 26.9382 18.0767 26.9474C17.6435 26.9722 17.2069 26.9683 16.7624 26.9343C15.4399 26.8334 14.15 26.4891 12.8896 25.8966L12.8039 25.8562C11.543 25.2637 10.461 24.493 9.55615 23.5474C8.64983 22.5975 7.95602 21.5485 7.47329 20.396C6.98915 19.2393 6.76319 18.0157 6.79294 16.7166C6.82269 15.4172 7.13613 14.1326 7.73396 12.8629C8.34383 11.5677 9.14496 10.5052 10.1349 9.67469C11.123 8.83992 12.2255 8.2304 13.4353 7.83834C14.6434 7.44911 15.911 7.30107 17.2338 7.40201C18.5552 7.4994 19.8457 7.8479 21.1066 8.44042L21.1898 8.47903C22.4499 9.0719 23.5337 9.83938 24.4396 10.7893C25.3445 11.7349 26.0373 12.7871 26.5229 13.9406C27.0056 15.0931 27.2369 16.3121 27.2124 17.6002C27.1869 18.8837 26.8706 20.174 26.2608 21.4699L26.2448 21.5039C26.0012 22.016 25.7214 22.4892 25.4129 22.9315C25.1749 21.9678 25.1466 20.9113 25.4759 20.2193L24.5792 19.2985L21.8716 22.045L19.1643 24.7919L20.0618 25.7128C21.3081 25.1036 23.7511 25.722 24.6259 26.6432C25.5007 27.564 25.8935 28.0134 26.463 28.8426C27.0329 29.6724 27.7433 30.6807 28.6907 31.6525C29.6374 32.6243 30.4846 32.9863 31.0059 33.0844C31.5276 33.1829 32.6843 33.1397 32.6843 33.1397C32.6843 33.1397 32.7328 31.9599 32.6393 31.4276C32.5465 30.8946 32.1962 30.0287 31.2492 29.0568C30.8355 28.6322 30.4155 28.2561 30.0047 27.9153C30.1637 27.7131 30.322 27.5098 30.4736 27.2984C31.1153 26.402 31.6898 25.4185 32.1895 24.3574C33.241 22.124 33.8123 19.8743 33.903 17.6119C33.9947 15.3467 33.6664 13.205 32.9233 11.1902C32.1775 9.17319 31.0707 7.34711 29.6006 5.71334C28.1269 4.0778 26.3419 2.76703 24.2413 1.77961L24.1556 1.73959C22.0557 0.752525 19.9109 0.205337 17.7186 0.104046C15.5249 -0.00149615 13.4297 0.309462 11.43 1.0355C9.42652 1.76296 7.58663 2.87505 5.90575 4.37601C4.22488 5.87696 2.85638 7.74165 1.80521 9.97538C0.754044 12.2084 0.184898 14.4591 0.0931691 16.7247C0.00250246 18.9872 0.328336 21.1277 1.07279 23.1468C1.81619 25.1621 2.92225 26.9881 4.39558 28.6237C5.86644 30.2578 7.65179 31.5682 9.75448 32.5567L9.83771 32.596C11.9376 33.5831 14.0866 34.1285 16.2775 34.2326Z" fill="white"></path><path d="M18.7435 24.4062L24.1584 18.9131L23.103 17.8301L17.6885 23.3232L18.7435 24.4062Z" fill="white"></path><path d="M13.7494 18.1742C13.6931 19.6783 17.244 22.9257 17.244 22.9257L22.6585 17.4322C20.4843 15.411 19.7427 13.0883 19.7427 13.0883C19.7731 14.075 19.68 14.2596 19.68 14.2596C19.2305 13.4953 19.2553 12.5879 19.2553 12.5879C18.7312 13.7754 18.8831 14.1643 18.8831 14.1643L18.4903 13.3649L16.8346 15.0444L17.4484 17.8296L16.1181 15.7711L14.8233 17.0847L15.1498 17.8161L14.5375 17.3745L13.7494 18.1742Z" fill="white"></path></g><path d="M51.5 25.67C51.0933 25.67 50.6467 25.6567 50.16 25.63C49.68 25.61 49.1933 25.5767 48.7 25.53C48.2133 25.49 47.7567 25.44 47.33 25.38V11.03C47.79 10.93 48.2833 10.8433 48.81 10.77C49.3367 10.69 49.8767 10.63 50.43 10.59C50.99 10.5433 51.54 10.52 52.08 10.52C53.5467 10.52 54.7433 10.6733 55.67 10.98C56.6033 11.28 57.29 11.7367 57.73 12.35C58.17 12.9567 58.39 13.72 58.39 14.64C58.39 15.1867 58.2833 15.69 58.07 16.15C57.8633 16.6033 57.56 16.9867 57.16 17.3C56.76 17.6133 56.2733 17.8267 55.7 17.94L55.71 17.81C56.65 17.9433 57.3967 18.3067 57.95 18.9C58.51 19.4867 58.79 20.3033 58.79 21.35C58.79 22.0367 58.66 22.65 58.4 23.19C58.14 23.7233 57.7233 24.1767 57.15 24.55C56.5767 24.9167 55.8233 25.1967 54.89 25.39C53.9633 25.5767 52.8333 25.67 51.5 25.67ZM52.37 23.3C53.2367 23.3 53.9167 23.2233 54.41 23.07C54.91 22.9167 55.2633 22.6867 55.47 22.38C55.6833 22.0733 55.79 21.6833 55.79 21.21C55.79 20.4967 55.5667 19.9767 55.12 19.65C54.68 19.3167 53.9533 19.15 52.94 19.15H50.16V16.72H52.63C53.29 16.72 53.8167 16.65 54.21 16.51C54.61 16.3633 54.8967 16.15 55.07 15.87C55.25 15.59 55.34 15.2367 55.34 14.81C55.34 14.1367 55.1267 13.65 54.7 13.35C54.2733 13.0433 53.5367 12.89 52.49 12.89C52.11 12.89 51.76 12.9067 51.44 12.94C51.12 12.9667 50.8067 13.0067 50.5 13.06V23.21C50.84 23.2433 51.1567 23.2667 51.45 23.28C51.7433 23.2933 52.05 23.3 52.37 23.3ZM60.5103 25.5V14.56H63.1203L63.3603 15.97H63.5203C63.827 15.43 64.2336 15.0367 64.7403 14.79C65.247 14.5367 65.8036 14.41 66.4103 14.41C66.577 14.41 66.737 14.4167 66.8903 14.43C67.0436 14.4433 67.1803 14.4633 67.3003 14.49V17.37C67.1336 17.3367 66.9536 17.3167 66.7603 17.31C66.5736 17.2967 66.3936 17.29 66.2203 17.29C65.907 17.29 65.5903 17.33 65.2703 17.41C64.9503 17.4833 64.6536 17.6 64.3803 17.76C64.107 17.9133 63.877 18.1033 63.6903 18.33V25.5H60.5103ZM72.2958 25.69C71.5691 25.69 70.9224 25.55 70.3558 25.27C69.7891 24.9833 69.3424 24.5267 69.0158 23.9C68.6891 23.2733 68.5258 22.4433 68.5258 21.41V14.56H71.7158V21.19C71.7158 21.85 71.8524 22.3067 72.1258 22.56C72.4058 22.8133 72.7691 22.94 73.2158 22.94C73.4358 22.94 73.6658 22.91 73.9058 22.85C74.1524 22.7833 74.3858 22.6833 74.6058 22.55C74.8258 22.4167 75.0191 22.25 75.1858 22.05V14.56H78.3658V25.5H75.7458L75.5258 24.4H75.3858C74.9724 24.82 74.5024 25.14 73.9758 25.36C73.4491 25.58 72.8891 25.69 72.2958 25.69ZM83.9547 25.71C83.328 25.71 82.718 25.67 82.1247 25.59C81.538 25.51 80.9847 25.39 80.4647 25.23V22.89C80.9914 23.05 81.548 23.1733 82.1347 23.26C82.7214 23.34 83.3147 23.38 83.9147 23.38C84.6347 23.38 85.1414 23.2867 85.4347 23.1C85.7347 22.9067 85.8847 22.64 85.8847 22.3C85.8847 22.0267 85.8114 21.82 85.6647 21.68C85.518 21.54 85.2614 21.4333 84.8947 21.36L83.1147 21.04C82.088 20.8467 81.3414 20.49 80.8747 19.97C80.408 19.45 80.1747 18.7533 80.1747 17.88C80.1747 16.8333 80.5947 15.99 81.4347 15.35C82.2814 14.71 83.578 14.39 85.3247 14.39C85.858 14.39 86.3747 14.42 86.8747 14.48C87.3814 14.54 87.838 14.6233 88.2447 14.73V17.07C87.818 16.95 87.3647 16.86 86.8847 16.8C86.4047 16.74 85.9147 16.71 85.4147 16.71C84.808 16.71 84.3414 16.7633 84.0147 16.87C83.688 16.97 83.458 17.1033 83.3247 17.27C83.198 17.4367 83.1347 17.6167 83.1347 17.81C83.1347 18.0433 83.208 18.2333 83.3547 18.38C83.5014 18.5267 83.7547 18.64 84.1147 18.72L85.8947 19.04C86.868 19.22 87.6014 19.5533 88.0947 20.04C88.5947 20.52 88.8447 21.2367 88.8447 22.19C88.8447 23.2767 88.418 24.1367 87.5647 24.77C86.718 25.3967 85.5147 25.71 83.9547 25.71ZM90.5298 25.5V9.34H93.7098V15.66H93.8698C94.2432 15.2467 94.6832 14.9333 95.1898 14.72C95.6965 14.5 96.2632 14.39 96.8898 14.39C97.5565 14.39 98.1598 14.53 98.6998 14.81C99.2398 15.09 99.6665 15.5467 99.9798 16.18C100.3 16.8067 100.46 17.64 100.46 18.68V25.5H97.2698V18.89C97.2698 18.2233 97.1298 17.7667 96.8498 17.52C96.5765 17.2667 96.2032 17.14 95.7298 17.14C95.4898 17.14 95.2465 17.1733 94.9998 17.24C94.7532 17.3 94.5165 17.3967 94.2898 17.53C94.0698 17.6633 93.8765 17.83 93.7098 18.03V25.5H90.5298ZM105.776 25.5L101.866 10.7H105.156L108.496 24.07H107.686L111.256 10.7H114.846L118.296 24.07H117.546L120.966 10.7H124.046L120.136 25.5H115.966L112.596 12.68H113.456L109.946 25.5H105.776ZM129.461 25.71C128.368 25.71 127.421 25.5033 126.621 25.09C125.828 24.67 125.215 24.0433 124.781 23.21C124.348 22.37 124.131 21.32 124.131 20.06C124.131 18.7867 124.341 17.73 124.761 16.89C125.188 16.05 125.798 15.4233 126.591 15.01C127.391 14.5967 128.348 14.39 129.461 14.39C130.575 14.39 131.528 14.6 132.321 15.02C133.121 15.4333 133.731 16.06 134.151 16.9C134.578 17.7333 134.791 18.78 134.791 20.04C134.791 21.3067 134.575 22.36 134.141 23.2C133.708 24.04 133.091 24.67 132.291 25.09C131.498 25.5033 130.555 25.71 129.461 25.71ZM129.461 23.29C129.908 23.29 130.288 23.1933 130.601 23C130.921 22.8067 131.165 22.4767 131.331 22.01C131.498 21.5367 131.581 20.89 131.581 20.07C131.581 19.23 131.498 18.5733 131.331 18.1C131.165 17.6267 130.921 17.2933 130.601 17.1C130.288 16.9 129.908 16.8 129.461 16.8C129.015 16.8 128.631 16.8967 128.311 17.09C127.998 17.2833 127.758 17.6167 127.591 18.09C127.425 18.5567 127.341 19.2033 127.341 20.03C127.341 20.87 127.425 21.5267 127.591 22C127.758 22.4733 127.998 22.8067 128.311 23C128.631 23.1933 129.015 23.29 129.461 23.29ZM136.663 25.5V14.56H139.273L139.513 15.97H139.673C139.979 15.43 140.386 15.0367 140.893 14.79C141.399 14.5367 141.956 14.41 142.563 14.41C142.729 14.41 142.889 14.4167 143.043 14.43C143.196 14.4433 143.333 14.4633 143.453 14.49V17.37C143.286 17.3367 143.106 17.3167 142.913 17.31C142.726 17.2967 142.546 17.29 142.373 17.29C142.059 17.29 141.743 17.33 141.423 17.41C141.103 17.4833 140.806 17.6 140.533 17.76C140.259 17.9133 140.029 18.1033 139.843 18.33V25.5H136.663ZM152.404 25.5L148.534 19.88L152.124 14.56H155.524L151.764 20.24V19.4L155.874 25.5H152.404ZM147.854 21.16V18.61H149.664V21.16H147.854ZM144.944 25.5V9.34H148.124V25.5H144.944ZM159.834 25.71C159.207 25.71 158.597 25.67 158.004 25.59C157.417 25.51 156.864 25.39 156.344 25.23V22.89C156.87 23.05 157.427 23.1733 158.014 23.26C158.6 23.34 159.194 23.38 159.794 23.38C160.514 23.38 161.02 23.2867 161.314 23.1C161.614 22.9067 161.764 22.64 161.764 22.3C161.764 22.0267 161.69 21.82 161.544 21.68C161.397 21.54 161.14 21.4333 160.774 21.36L158.994 21.04C157.967 20.8467 157.22 20.49 156.754 19.97C156.287 19.45 156.054 18.7533 156.054 17.88C156.054 16.8333 156.474 15.99 157.314 15.35C158.16 14.71 159.457 14.39 161.204 14.39C161.737 14.39 162.254 14.42 162.754 14.48C163.26 14.54 163.717 14.6233 164.124 14.73V17.07C163.697 16.95 163.244 16.86 162.764 16.8C162.284 16.74 161.794 16.71 161.294 16.71C160.687 16.71 160.22 16.7633 159.894 16.87C159.567 16.97 159.337 17.1033 159.204 17.27C159.077 17.4367 159.014 17.6167 159.014 17.81C159.014 18.0433 159.087 18.2333 159.234 18.38C159.38 18.5267 159.634 18.64 159.994 18.72L161.774 19.04C162.747 19.22 163.48 19.5533 163.974 20.04C164.474 20.52 164.724 21.2367 164.724 22.19C164.724 23.2767 164.297 24.1367 163.444 24.77C162.597 25.3967 161.394 25.71 159.834 25.71Z" fill="white"></path><defs><clipPath id="clip0_2002_13"><rect width="34" height="34" fill="white"></rect></clipPath></defs></svg>